<svg xmlns="http://www.w3.org/2000/svg" viewBox="56.739 40.429 150 128.408" width="150px" height="128.408px">
  <path d="M93.722 144.028zl0.029 0.058c1.043 -1.65 1.056 -2.166 1.12 -4.882 -1.127 0.565 -1.127 0.565 -1.996 1.436l-0.301 0.402h-0.919c0.099 -1.413 1.452 -3.446 1.608 -3.446 0 -0.152 0.303 -0.459 0.459 -0.459 -0.861 -2.674 -20.627 -54.299 -20.674 -54.441 -0.016 7.634 -0.08 54.724 -0.082 55.301 -0.224 5.352 -0.224 5.352 1.69 10.166 1.66 1.008 3.663 1.1 5.556 1.206l0.795 0.054c0.64 0.043 1.279 0.081 1.919 0.119v3.675h-26.187v-3.675l1.059 -0.076c4.03 -0.138 4.03 -0.138 7.699 -1.56 2.031 -3.115 1.155 -8.906 1.157 -12.483 0.001 -0.581 0.046 -48.121 0.048 -48.683 0.285 -4.78 0.285 -4.78 -1.332 -9.046 -1.766 -1.524 -3.856 -1.488 -6.075 -1.673l-0.745 -0.063q-0.905 -0.077 -1.811 -0.152v-3.446h23.43c1.032 2.065 8.103 19.894 8.269 20.674h0.459c0.043 -0.194 0.085 -0.388 0.129 -0.589q0.055 -0.129 0.113 -0.252l-0.012 -0.078a6.11 6.11 0 0 1 0.492 -0.727c0.533 -0.729 1.236 -1.276 2.077 -1.772a7.81 7.81 0 0 1 0.464 -0.169c0.186 -0.082 0.377 -0.156 0.571 -0.223l0.003 -0.001q0.124 -0.022 0.247 -0.039c0.546 -0.077 1.088 -0.087 1.644 -0.099 0.314 -0.008 0.614 -0.019 0.903 -0.037 0.809 -0.069 1.526 -0.211 2.232 -0.456 0.368 -0.152 0.735 -0.354 1.113 -0.621l0.36 -0.221c0.064 0.032 0.119 0.059 0.167 0.084a14.472 14.472 0 0 0 0.522 -0.314v-0.459a63.17 63.17 0 0 0 -0.559 -0.335c-0.516 -0.17 -0.961 -0.346 -1.43 -0.62 -0.28 -0.058 -0.616 -0.099 -1.095 -0.153l-0.133 0.017a3.974 3.974 0 0 1 -1.084 -0.124c-0.926 -0.237 -1.702 -0.777 -2.592 -1.312q-0.667 -0.338 -1.335 -0.675c-1.243 -0.674 -2.162 -1.497 -2.8 -2.771 -0.057 -0.804 -0.057 -0.804 0 -1.608l0.001 0 0.001 0 0.045 -0.03c0.91 -0.591 1.633 -0.572 2.71 -0.429 1.673 0.785 2.983 2.43 3.761 4.077 0.653 1.257 1.638 1.6 2.9 2.125q0.648 0.318 1.292 0.646l0.581 0.291 0.424 0.212q-0.048 -1.127 -0.101 -2.254 -0.003 -0.073 -0.006 -0.146l-0.022 -0.501c-0.009 -0.205 -0.019 -0.41 -0.029 -0.621 -0.009 -0.186 -0.017 -0.372 -0.025 -0.564q0 -0.004 0 -0.008c-0.032 -0.541 -0.032 -0.541 -0.277 -1.189 -0.108 -0.071 -0.216 -0.142 -0.325 -0.214l-0.35 -0.231c-0.71 -0.478 -0.875 -0.628 -1.163 -1.393 -0.045 -0.542 -0.045 -0.542 -0.029 -1.091l0.01 -0.461 0.002 -0.095q0.002 -0.051 0.004 -0.101l0.013 -0.319 0.919 -0.23 0.1 -0.732q0.004 -0.024 0.007 -0.048l0.013 -0.088q0.004 -0.025 0.008 -0.051h-0.128c-0.152 -0.91 -0.304 -1.819 -0.46 -2.757h-0.459l-0.072 0.517c-0.182 0.728 -0.293 1.04 -0.847 1.551 -0.693 0.062 -1.268 0.066 -1.953 0.014l-0.537 -0.017c-0.518 -0.033 -0.518 -0.033 -1.415 -0.227 -0.532 -0.648 -0.767 -1.248 -0.919 -2.067l-0.876 -0.072c-0.579 -0.048 -0.883 -0.098 -1.35 -0.45 -0.675 -0.889 -0.704 -2.107 -0.876 -3.182 0.173 -0.991 0.773 -1.591 1.493 -2.268l0.459 -0.23 -0.529 -0.026 -0.692 -0.046 -0.686 -0.04c-0.684 -0.13 -0.912 -0.243 -1.309 -0.807 -0.058 -0.711 -0.091 -1.195 0.23 -1.838 0.029 -0.325 0.052 -0.651 0.072 -0.976 0.105 -1.044 0.449 -1.62 1.077 -2.469a17.917 17.917 0 0 0 0.359 -0.847c0.49 -1.129 0.49 -1.129 1.019 -1.45 0.847 -0.043 0.847 -0.043 1.608 0l0.187 -0.531c0.267 -0.606 0.425 -0.928 0.962 -1.307 0.546 -0.144 0.546 -0.144 1.149 0 0.452 0.495 0.804 1.034 1.148 1.608l0.134 -0.579c0.06 -0.249 0.12 -0.499 0.181 -0.756l0.178 -0.751c0.195 -0.67 0.195 -0.67 0.655 -1.359l0.402 0.115c0.578 0.148 0.578 0.148 1.435 0.115 0.374 -0.335 0.374 -0.335 0.689 -0.689 0.151 0 0.459 -0.303 0.459 -0.459 0.868 -0.289 1.406 -0.187 2.297 0q0.461 0.342 0.919 0.689c0.606 0.185 1.219 0.317 1.838 0.459l0.23 0.23c-0.002 0.751 -0.031 1.5 -0.059 2.251 0.066 0.818 0.251 1.034 0.749 1.654 0.082 0.721 -0.026 1.373 -0.23 2.067 -0.503 0.632 -0.503 0.632 -1.149 1.149q-0.381 0.323 -0.761 0.646c-0.204 0.166 -0.407 0.331 -0.617 0.502 0.111 0.963 0.616 1.331 1.335 1.938 2.199 1.868 2.199 1.868 2.411 3.399 0.056 1.103 0.029 1.828 -0.688 2.703 -0.589 0.595 -1.115 0.877 -1.909 1.149 -0.128 0.166 -0.256 0.332 -0.388 0.503 -0.531 0.416 -0.531 0.416 -1.075 0.4a23.201 23.201 0 0 1 -1.216 -0.198c-0.552 -0.076 -0.552 -0.076 -0.91 0.307L100.614 73.967l-0.689 0.23 0.459 2.986 0.919 -1.149c0.345 -0.416 0.345 -0.416 0.689 -0.689h0.919c0.165 1.762 -0.119 2.918 -1.149 4.364l-0.459 0.459a24.809 24.809 0 0 0 -0.043 1.924l0 0.535c0.006 0.832 0.047 1.56 0.272 2.365 2.553 -3.51 2.553 -3.51 4.666 -7.293 0.599 -1.228 1.265 -2.367 2.024 -3.503l0.284 -0.425c0.613 -0.9 1.276 -1.734 1.985 -2.561 0.89 0.201 0.89 0.201 1.149 0.459 0.182 1.938 0.328 3.714 -0.958 5.296 -0.139 0.147 -0.277 0.295 -0.42 0.447 -0.138 0.157 -0.277 0.314 -0.42 0.475 -0.953 1.019 -2.002 1.797 -3.152 2.579 -1.967 1.368 -3.437 3.038 -4.468 5.215 0.851 -0.371 1.619 -0.775 2.346 -1.229 0.907 -0.606 1.756 -1.268 2.605 -1.997a6.202 6.202 0 0 1 0.61 -0.433c0.372 -0.24 0.728 -0.39 1.14 -0.472a3.446 3.446 0 0 1 0.699 -0.077 7.58 7.58 0 0 1 0.416 -0.003q0.091 0.016 0.177 0.037 0.135 0.016 0.277 0.04c0.108 0.072 0.2 0.133 0.279 0.187 0.136 0.079 0.262 0.172 0.385 0.275 0.124 0.1 0.228 0.2 0.405 0.376l0.08 0.08v0c-0.043 0.546 -0.043 0.546 -0.23 1.149 -0.589 0.302 -0.589 0.302 -1.149 0.459v0.459q-0.083 0.027 -0.166 0.053c-1.154 0.37 -2.229 0.69 -3.384 0.843a17.458 17.458 0 0 1 -2.067 0.212l-0.08 0c-0.883 0.199 -1.537 0.635 -2.36 1.304 -0.442 0.344 -0.442 0.344 -0.902 0.344 0 0.142 0.001 0.284 0.001 0.43q0.007 5.185 0.011 10.37 0.002 2.508 0.006 5.015 0.003 1.827 0.004 3.654l0 0.718v0.062q0 0.858 0.002 1.716 0 0.268 0.001 0.536 0.001 0.334 0.001 0.668v0.015q0.001 0.499 0.001 0.998v0.903c0.001 0.226 0.001 0.452 0.002 0.684v0.104q0 0.343 -0.004 0.681c-0.012 0.854 -0.088 11.096 0.206 11.806 0.152 0.076 0.497 -0.197 0.517 -0.416 0.136 -0.946 4.35 -14.624 4.439 -14.926 0.519 -1.768 0.519 -1.768 0.788 -2.575 0.12 -1.288 0.12 -1.288 -0.359 -2.441 -0.435 -0.424 -0.863 -0.787 -1.336 -1.163 -2.137 -1.806 -2.519 -4.048 -2.746 -6.705a119.22 119.22 0 0 1 -0.154 -2.326c2.042 0.29 3.63 1.859 4.91 3.388 1.031 1.428 1.19 2.927 1.292 4.652 0.634 -1.761 1.112 -3.203 0.689 -5.054 -0.192 -0.852 -0.274 -1.653 -0.287 -2.527l-0.018 -0.703c0.087 -0.777 0.296 -1.203 0.765 -1.823 0.546 -0.144 0.546 -0.144 1.149 0 0.646 0.574 0.646 0.574 1.149 1.149 -0.135 -1.534 -0.284 -3.065 -0.459 -4.594a64.778 64.778 0 0 1 -0.029 -0.991l-0.016 -0.557c0.045 -0.52 0.045 -0.52 0.504 -1.209l1.149 0.23 0.23 0.919 0.459 -0.23c0.365 -1.094 0.389 -1.965 -0.115 -3.015 -0.565 -1.189 -0.55 -2.597 -0.345 -3.876 0.466 -0.666 0.466 -0.666 0.919 -1.149 0.658 0.132 0.887 0.198 1.378 0.689 0.029 0.718 0.029 0.718 0 1.378h0.459c0.737 -2.389 0.856 -3.87 0.155 -6.259 -0.22 -0.896 -0.302 -1.785 -0.155 -2.7 0.459 -0.689 0.459 -0.689 1.005 -0.804 0.603 0.115 0.603 0.115 1.134 0.689l0.388 0.574c-0.126 -1.022 -0.126 -1.022 -0.348 -2.025 -0.371 -1.659 -0.381 -3.454 0.462 -4.952a16.999 16.999 0 0 1 0.574 -0.833l1.149 0.23 0.23 0.919h0.459c0.033 -0.218 0.066 -0.436 0.101 -0.66 0.129 -0.718 0.129 -0.718 0.359 -1.177 0.084 -1.015 -0.025 -1.76 -0.345 -2.728 -0.401 -1.245 -0.627 -2.497 -0.153 -3.751 0.268 -0.413 0.268 -0.413 0.957 -0.614l0.689 -0.029c0.459 0.459 0.459 0.459 0.459 1.378h0.689c0.3 -1.84 0.183 -3.136 -0.474 -4.877 -0.303 -0.895 -0.334 -1.538 -0.215 -2.474 0.273 -0.474 0.273 -0.474 0.689 -0.689 0.589 0.029 0.589 0.029 1.149 0.23 0.459 0.689 0.459 0.689 0.459 1.608h0.459q0.175 -0.76 0.339 -1.522c0.093 -0.423 0.198 -0.844 0.307 -1.263 0.059 -0.898 -0.249 -1.473 -0.646 -2.268 -0.297 -0.593 -0.277 -1.047 -0.287 -1.708 -0.006 -0.222 -0.012 -0.445 -0.018 -0.674 0.075 -0.604 0.075 -0.604 0.363 -1.033 0.73 -0.474 1.415 -0.179 2.239 -0.031 0.018 -0.218 0.037 -0.436 0.057 -0.66 0.158 -1.152 0.632 -2.185 1.091 -3.245 1.118 0.201 1.118 0.201 1.377 0.459v0c0.102 1.153 0.08 2.17 -0.459 3.216l1.149 0.23c0.102 0.871 -0.054 1.414 -0.564 2.128 -0.64 0.72 -1.379 1.331 -2.114 1.951 -0.957 0.918 -1.305 1.735 -1.456 3.043l0.632 -0.589c0.67 -0.566 0.67 -0.566 1.292 -0.517l0.373 0.187c-0.123 1.963 -1.086 3.29 -2.527 4.594l-0.382 0.263c-1.482 1.078 -1.985 2.673 -2.605 4.331l0.378 -0.336 0.498 -0.44 0.493 -0.436c0.765 -0.647 1.044 -0.856 2.077 -0.856 0.129 1.333 -0.502 1.995 -1.279 3.018 -1.038 1.221 -2.211 2.295 -3.545 3.184 -0.232 0.477 -0.232 0.477 -0.388 1.019l-0.175 0.545c-0.154 0.528 -0.154 0.528 -0.127 1.192l0.517 -0.459c0.632 -0.459 0.632 -0.459 1.551 -0.459 -0.031 1.73 -0.658 2.665 -1.838 3.905a48.469 48.469 0 0 1 -0.962 0.775c-1.096 0.9 -1.427 2.024 -1.794 3.36 0.076 0.076 0.151 0.152 0.23 0.23l0.311 -0.352c1.149 -1.234 1.149 -1.234 1.972 -1.357l0.474 0.101c0.106 1.324 -0.071 1.964 -0.919 2.986 -0.637 0.632 -1.273 1.219 -2.089 1.607 -0.925 0.443 -1.28 0.729 -1.678 1.707 -0.243 0.8 -0.43 1.61 -0.598 2.429 0.208 -0.19 0.417 -0.379 0.632 -0.574 0.64 -0.582 0.717 -0.574 1.665 -0.574 -0.112 1.785 -0.855 3.03 -2.182 4.221 -0.477 0.402 -0.802 0.602 -1.403 0.792 -0.602 0.223 -0.602 0.223 -0.804 0.843l-0.147 0.676 -0.155 0.674c-0.043 0.199 -0.088 0.399 -0.132 0.604l-0.23 0.689h0.459c0.052 -0.133 0.104 -0.265 0.158 -0.402 0.389 -0.667 0.803 -1.019 1.45 -1.436 0.531 0.057 0.531 0.057 0.919 0.23 0.109 1.418 -0.593 2.318 -1.378 3.446 -0.531 0.589 -0.531 0.589 -1.149 1.149a729.33 729.33 0 0 0 -1.611 1.656c-0.411 0.371 -0.452 0.408 -0.791 0.411l0.026 0.12c0.078 0.57 0.078 0.57 -0.152 1.259l0.47 -0.36 0.621 -0.459 0.614 -0.46c0.592 -0.329 0.592 -0.329 1.127 -0.264l0.384 0.164c-0.143 1.501 -0.721 2.365 -1.823 3.374 -1.616 1.22 -1.616 1.22 -2.312 1.22v0.459h-0.689l-0.117 0.407c-0.385 1.312 -0.815 2.601 -1.274 3.89 -0.674 1.893 -2.208 7.139 -3.328 11.057 1.109 -2.045 3.009 -5.158 4.113 -6.855H110.491c0.373 -1.378 1.082 -2.537 1.794 -3.762l0.363 -0.632A103.14 103.14 0 0 1 114.855 99.005l0.23 0.459h0.95c0.947 -2.512 2.333 -6.165 2.482 -6.589 0.204 -0.636 0.339 -1.227 0.459 -1.881 0.258 -1.346 0.625 -2.553 1.393 -3.704l0.689 -0.23a17.688 17.688 0 0 0 0.574 -1.651c0.258 -0.856 0.509 -1.666 0.911 -2.467 0.36 -0.722 0.602 -1.431 0.848 -2.196 0.363 -1.088 0.792 -2.151 1.212 -3.219 0.088 -0.225 0.176 -0.451 0.266 -0.683 0.594 -1.516 1.202 -3.028 1.93 -4.486l7.58 -0.23c0.341 -0.796 0.341 -0.796 0.689 -1.608 0.33 -0.445 0.33 -0.445 0.689 -0.689h0.919c0.076 0.455 0.151 0.91 0.23 1.378 1.376 -1.091 1.895 -2.211 2.468 -3.849 0.396 -1.025 2.875 -5.259 7.006 -5.01 0 1.087 -0.895 4.397 -3.439 6.544 -1.234 0.617 -1.958 0.478 -3.279 0.248l-0.172 0.402c-0.326 0.586 -0.735 0.964 -1.206 1.436 -0.076 0.227 -0.152 0.455 -0.23 0.689 0.379 0.076 1.149 0.533 1.149 0.689h8.27v3.446l-1.234 0.135 -1.624 0.181 -0.81 0.088c-3.023 0.202 -3.023 0.202 -5.521 1.664 -0.479 1.138 -0.557 2.197 -0.602 3.412 -0.009 0.206 -0.018 0.413 -0.026 0.625 -0.112 3.031 -0.087 6.066 -0.077 9.098 0.003 0.827 0.003 1.654 0.004 2.482q0.004 2.414 0.012 4.827c0.164 -0.262 0.164 -0.262 0.331 -0.529 0.144 -0.229 0.288 -0.457 0.436 -0.693l0.432 -0.688c1.834 -2.771 6.049 -5.643 9.138 -6.819 0.745 -0.048 0.745 -0.048 1.378 0 0.076 0.076 0.151 0.152 0.23 0.23 -0.036 2.269 -1.139 4.164 -2.757 5.743 -0.819 0.721 -1.664 1.4 -2.527 2.067l-0.546 0.425c-1.684 1.246 -3.546 2.117 -5.427 3.02q-0.461 0.228 -0.919 0.459c0.003 0.296 0.021 2.924 0.022 3.208l0.002 0.3c0.14 0.03 0.351 0.118 0.663 0.167 1.168 -0.027 0.48 -0.027 1.648 -0.062 0.73 -0.008 1.258 0.02 1.909 0.36 0.349 0.391 0.349 0.391 0.478 1.181 -0.129 0.818 -0.129 0.818 -0.574 1.35 -1.305 0.719 -4.164 1.318 -4.399 1.045l0.001 0.263 0.002 1.102c0.002 1.002 0.118 29.626 0.117 29.985 -0.005 2.515 0.043 5.802 1.509 7.962a14.701 14.701 0 0 0 1.967 0.503c0.193 0.038 0.386 0.077 0.585 0.117 1.661 0.313 3.308 0.436 4.995 0.489 0.723 0.04 0.723 0.04 0.953 0.27v3.216h-30.322v-3.216l1.517 -0.227q0.732 -0.112 1.462 -0.226 0.507 -0.078 1.013 -0.153c0.487 -0.072 0.973 -0.148 1.459 -0.224l0.886 -0.135c0.78 -0.183 1.29 -0.399 1.933 -0.873 0.325 -0.569 0.325 -0.569 0.517 -1.22l0.219 -0.643c0.432 -1.565 0.452 -3.073 0.46 -4.686 0.001 -0.131 0.046 -11.679 0.091 -24.208 -1.35 0.35 -2.559 0.481 -3.957 0.408q-0.555 -0.017 -1.11 -0.033c-0.573 -0.018 -1.145 -0.04 -1.717 -0.07 -2.31 -0.162 -2.31 -0.162 -4.437 0.574 -0.567 0.513 -1.055 1.045 -1.551 1.624a17.917 17.917 0 0 1 -0.919 0.689l0.417 -0.011c0.631 -0.014 1.262 -0.023 1.894 -0.032l0.656 -0.018c1.343 -0.014 2.273 0.12 3.464 0.75 0.086 0.503 0.086 0.503 0 1.149 -1.127 1.153 -1.946 1.374 -3.532 1.421 -1.594 -0.012 -3.162 -0.267 -4.735 -0.502h-0.002c-0.087 0.234 -0.087 0.234 -0.175 0.473 -0.266 0.718 -8.619 21.559 -8.66 21.748 -0.123 0.52 -0.123 0.52 -0.353 1.209h-4.135c-0.076 -0.379 -0.152 -0.758 -0.23 -1.149 -0.65 0.325 -0.668 0.685 -0.908 1.363l-0.257 0.719 -0.271 0.776c-0.093 0.261 -0.185 0.523 -0.28 0.792q-0.28 0.794 -0.556 1.588 -0.212 0.611 -0.428 1.22c-0.188 1.098 -0.502 2.168 -0.976 3.19l-0.065 0.022c-0.445 1.551 -0.821 3.117 -1.183 4.702 -0.461 1.987 -0.967 3.938 -1.765 5.821 -0.256 0.609 -0.463 1.23 -0.662 1.86h-0.689v1.378h-0.689c-0.042 -1.181 0.096 -2.167 0.402 -3.307 0.041 -0.155 0.082 -0.309 0.124 -0.469a264.396 264.396 0 0 1 0.393 -1.465c0.132 -0.492 4.325 -12.885 4.455 -13.378q0.177 -0.666 0.357 -1.331c0.187 -0.638 0.187 -0.638 0.169 -1.14l-0.15 0.395 -0.211 0.555c-0.077 0.203 -0.154 0.405 -0.234 0.614 -0.168 0.442 -4.398 12.784 -4.568 13.225a191.578 191.578 0 0 0 -0.826 2.188c-0.068 0.408 -0.242 0.808 -0.427 1.282l-0.305 0.807c-0.051 0.1 -0.093 0.184 -0.132 0.256 -0.199 0.389 -0.253 0.407 -0.883 0.617v0L86.83 167.688c0.052 -0.801 0.227 -1.685 0.556 -2.488 0.247 -0.699 5.89 -16.207 6.181 -16.913l0.329 -0.808 0.18 -0.442a115.544 115.544 0 0 1 -0.595 1.379l-0.214 0.488c-0.582 1.326 -5.286 13.55 -5.891 14.866 -0.227 0 -1.69 3.919 -1.924 3.919v0H85.452l0.002 -0.017c0.023 -0.214 -0.538 0.27 -0.496 0.072 0.101 -0.539 -0.254 -0.625 0.022 -1.136 0.141 -0.31 0.751 -1.713 0.923 -2.034 1.156 -2.25 2.073 -4.762 2.675 -7.22 0.946 -3.818 3.199 -7.164 4.838 -10.729 0.34 -0.687 0.39 -0.788 0.484 -1.344l-0.134 0.159v0q-0.128 0.168 -0.246 0.337 -0.445 0.853 -0.89 1.707 -0.224 0.43 -0.449 0.86c-0.839 1.603 -1.662 3.204 -2.362 4.873l-0.216 0.511a146.785 146.785 0 0 0 -0.66 1.614l-0.036 0.09q-0.207 0.543 -0.412 1.086 -0.248 0.652 -0.498 1.303a84.763 84.763 0 0 0 -0.834 2.474 35.605 35.605 0 0 1 -0.574 1.64l-0.058 0.198c-0.246 0.781 -0.587 1.505 -0.948 2.239l-0.189 0.394a59.725 59.725 0 0 1 -0.629 1.315 169.296 169.296 0 0 0 -0.919 2.067h-0.689V168.148H83.155v-0.919h0.459l0.273 -0.861c0.532 -1.596 1.211 -3.131 1.87 -4.679 0.572 -1.354 1.088 -2.707 1.533 -4.108q0.084 -0.245 0.17 -0.49c1.415 -4.05 3.064 -7.895 5.333 -11.55q0.451 -0.759 0.929 -1.514Zm18.28 -37.292c-1.279 2.005 -8.69 18.666 -8.973 19.466 -0.26 1.165 -0.885 1.566 -0.348 2.665l0.689 0.23c1.256 -1.395 2.403 -2.662 3.019 -4.465 0.105 -0.315 4.525 -11.729 6.98 -18.095 -0.475 0.14 -0.901 0.225 -1.367 0.2m-13.658 6.539 0.06 0.525q0.073 0.642 0.141 1.284h0.459c0 -0.834 1.062 -3.216 1.609 -3.216v-23.66c-1.245 0.505 -1.912 0.775 -2.418 1.101a5.513 5.513 0 0 0 -0.474 0.362c-0.097 0.087 -0.194 0.182 -0.294 0.287 -0.238 0.25 -0.495 0.559 -0.83 0.968q-0.061 0.083 -0.122 0.17a11.486 11.486 0 0 1 -0.746 0.821c-0.637 0.643 -1.416 1.263 -2.223 1.653q-0.204 0.099 -0.409 0.177a7.351 7.351 0 0 1 -1.213 0.432c-0.613 0.053 -0.613 0.053 -1.192 0.043l-0.584 -0.005c-0.521 -0.039 -0.521 -0.039 -1.21 -0.268 0.172 0.416 4.365 10.567 4.365 11.256h1.608l-0.201 -0.876 -0.113 -0.493c-0.141 -0.533 -0.141 -0.533 -0.605 -1.158l-0.589 -0.301C92.804 101.991 92.804 101.991 92.588 101.302c-0.014 -0.689 -0.014 -0.689 0.445 -1.378 0.574 -0.072 0.574 -0.072 1.149 0 0.665 0.665 0.546 1.292 0.587 2.203 0.117 0.637 0.295 0.843 0.791 1.243 0.512 -1.09 0.795 -2.004 0.919 -3.216l1.378 0.23c0.158 0.531 0.158 0.531 0.23 1.149 -0.287 0.416 -0.287 0.416 -0.689 0.689h-0.689l-0.086 0.402c-0.144 0.517 -0.144 0.517 -0.381 0.926 -0.28 0.641 -0.267 1.134 -0.251 1.831 0.004 0.226 0.49 1.398 0.603 1.724l0.194 0.549c0.15 0.542 0.15 0.542 0.15 1.461h0.46l0.1 -0.546c0.129 -0.603 0.129 -0.603 0.359 -1.062 0.072 -0.655 0.117 -1.31 0.165 -1.968 0.094 -0.814 0.134 -0.778 0.969 -0.832l-0.001 -0.001c0.703 0.043 0.703 0.043 1.163 0.503 0.128 1.202 0.128 1.202 -0.302 1.795 -0.388 0.273 -0.388 0.273 -1.076 0.503 -0.708 1.042 -1.015 1.837 -1.133 3.047l0.108 0.532c0.539 0.635 0.506 1.353 0.595 2.192m28.226 -26.445 -1.378 0.23c-0.685 1.096 -0.75 1.921 -0.602 3.19 -0.088 0.485 -0.088 0.485 -0.628 0.913 -0.753 0.608 -0.894 1.068 -1.182 1.984 -0.353 1.068 -0.721 2.11 -1.163 3.144 -0.462 1.084 -0.87 2.178 -1.251 3.294 -0.228 0.568 -0.228 0.568 -0.6 1.178 -0.341 0.479 -0.368 0.516 -0.317 0.997l0.861 -0.229c1.32 -0.299 2.616 -0.271 3.962 -0.23v0.919l-0.582 0.238c-1.187 0.673 -2.013 1.639 -2.943 2.625 -0.906 0.94 -3.591 2.573 -3.825 2.651a19.525 19.525 0 0 0 -0.689 1.608c-0.104 0.247 -0.207 0.495 -0.312 0.749 -0.676 1.664 -1.292 3.336 -1.87 5.037 -0.486 1.423 -1.027 2.767 -1.696 4.091H112.788c1.024 -0.643 1.898 -1.347 2.3 -2.512a109.112 109.112 0 0 0 0.28 -1.515c0.507 -2.284 4.625 -11.093 7.571 -10.588L123.354 104.748c0.212 3.494 -2.978 7.079 -5.054 9.648 0.559 -0.373 1.015 -0.738 1.51 -1.185 1.047 -0.924 2.147 -1.762 3.271 -2.59l0.588 -0.443 0.565 -0.418 0.508 -0.377C125.192 109.112 125.192 109.112 125.881 109.112l0.626 0.209c0.035 -10.162 0.064 -19.535 0.064 -22.49m-14.472 35.375h0.003c0.15 0.014 0.295 0.028 0.441 0.042l0.575 0.058c0.35 0.034 0.7 0.076 1.048 0.129 0.23 0.23 0.23 0.23 0.873 0.268l0.807 0.005c0.955 0.012 1.634 0.01 2.455 -0.503l-0.23 -0.919c-1.952 -0.34 -3.85 -0.424 -5.743 0.23l-0.23 0.689h0.001zm0.003 0 -0.002 0zM95.79 111.409h0.001zm4.824 3.216 -0.001 0 0.001 0.008zM96.708 110.49h0v-0.918H96.708zm-2.757 -4.365 0 0H93.951c0.068 1.497 0.068 1.497 1.608 4.364h1.149c0 -0.762 0 -0.762 -0.49 -2.02a78.331 78.331 0 0 1 -0.398 -1.036q-0.244 -0.655 -0.49 -1.309h-1.376zm2.73 4.365h-0.369c0.096 0.006 0.209 0.003 0.369 0M119.679 115.314v0.459c0.919 0 0.919 0 1.403 -0.063l0.51 -0.088 0.556 -0.094 0.574 -0.1 1.138 -0.194L124.733 115.085l-0.23 0.459 -0.553 0.136 -0.725 0.109 -0.783 0.121 -0.824 0.121c-0.778 0.119 -1.555 0.238 -2.334 0.354L118.76 116.463v0.459a321.364 321.364 0 0 0 2.742 0.029c1.769 0.027 3.354 -0.026 5.068 -0.488v-2.527c-2.512 0 -4.548 0.531 -6.891 1.378m5.8 -5.494 -0.482 0.348 -0.536 0.386 -0.561 0.41c-1.396 1.001 -2.718 2.048 -3.991 3.201 0.689 0.23 0.689 0.23 1.522 -0.083 0.854 -0.343 1.642 -0.501 2.555 -0.6l0.518 -0.049 1.048 -0.11L126.341 113.247v-3.675c-0.459 0 -0.459 0 -0.862 0.249m-3.574 -4.11L121.517 106.126c-0.733 0.681 -2.089 1.894 -2.274 2.878 -0.217 1.329 -1.715 2.618 -2.445 3.744 -0.317 0.469 0.296 1.308 0.02 1.805 0.116 0.348 1.14 -1.188 1.254 -0.847 1.236 -1.582 2.428 -3.158 3.351 -4.946l0.239 -0.481c0.463 -0.928 0.858 -1.806 1.005 -2.843 -0.459 0 -0.459 0 -0.761 0.273m-7.482 -4.76L114.166 101.36c-0.464 0.722 -0.875 1.381 -1.091 2.222L113.017 104.059h-0.459c-0.285 0.685 -0.518 1.347 -0.689 2.067 1.476 -1.013 2.701 -1.863 3.287 -3.613L115.314 101.991a126.8 126.8 0 0 0 0.689 -2.297h-0.689c-0.273 0.273 -0.273 0.273 -0.892 1.255M118.76 102.68c-0.494 0.742 -0.506 0.984 -0.459 1.838l1.837 -0.918h0.001c-0.492 0.739 -0.733 0.864 -1.507 1.234 -0.561 0.264 -0.561 0.264 -1.019 0.603 -0.178 0.612 -0.178 0.612 -0.23 1.149h0.689c1.687 -1.047 3.299 -2.543 4.135 -4.364 -1.243 -0.052 -2.256 0.076 -3.446 0.459m1.378 0.919 0 0zm9.188 -59.035h0.459c0.559 -1.142 0.769 -1.917 0.689 -3.216h-0.459c-0.559 1.142 -0.769 1.917 -0.689 3.216m0.81 0.713c-0.828 0.794 -1.213 1.306 -1.27 2.503 0.459 0 0.459 0 0.798 -0.253 0.828 -0.794 1.213 -1.306 1.27 -2.503 -0.459 0 -0.459 0 -0.798 0.253m-3.368 0.197 0.002 0.555c-0.002 0.677 0.041 1.099 0.258 1.752h0.919v-2.757l-0.919 -0.23c-0.23 0.23 -0.23 0.23 -0.26 0.68M124.273 52.144c-0.122 1.034 -0.122 1.034 0.689 2.757h0.459v-2.527l-0.919 -0.459zm3.774 -0.394c-0.856 0.978 -1.194 1.616 -1.247 2.921 0.459 0 0.459 0 0.848 -0.354 0.829 -0.924 1.417 -1.562 1.449 -2.862 -0.689 0 -0.689 0 -1.05 0.295m-2.325 7.7 -0.43 0.475c-0.56 0.613 -0.884 1.04 -1.019 1.866 0.459 0 0.459 0 0.948 -0.47l0.559 -0.621c0.627 -0.686 1.124 -1.185 1.249 -2.125h-0.459a37.213 37.213 0 0 0 -0.848 0.874M122.206 62.251h0.459c0.483 -1.178 0.509 -2.196 0.459 -3.446l-0.919 -0.23c-0.657 0.957 -0.297 2.331 0 3.675m-0.388 5.7c-0.54 0.744 -0.662 0.995 -0.531 1.881 0.459 0 0.459 0 0.848 -0.362l0.43 -0.485c0.636 -0.702 0.899 -1.195 1.019 -2.139 -0.71 0 -0.71 0 -1.766 1.106m-2.674 0.563 0.018 0.787c0.01 0.717 -0.035 1.266 0.287 1.909h0.459c0.299 -0.766 0.46 -1.391 0.504 -2.216l-0.016 -0.856A152.757 152.757 0 0 0 120.368 66.616h-0.459c-0.5 0.647 -0.682 1.079 -0.764 1.898M117.612 76.264l0.689 0.23 0.008 -0.645 0.006 -0.833c0.005 -0.503 0.003 -1.005 -0.014 -1.508 -0.258 -0.258 -0.258 -0.258 -1.149 -0.459 -0.058 1.167 0.104 2.111 0.459 3.216m3.287 -2.364 -0.43 0.484c-0.557 0.617 -0.884 1.053 -1.019 1.881 0.594 0 0.594 0 1.838 -0.919 0 -0.156 0.308 -0.459 0.459 -0.459 0.258 -0.517 0.258 -0.517 0.459 -1.608 -0.639 0 -0.861 0.171 -1.307 0.622m-6.533 7.681 0.002 0.613 -0.002 0.607c0.045 0.869 0.095 1.338 0.72 1.962 0.462 -1.329 0.51 -2.504 0.459 -3.905h-0.919c-0.23 0.23 -0.23 0.23 -0.26 0.722m3.777 -0.123 -0.43 0.492c-0.554 0.622 -0.883 1.067 -1.019 1.895 0.459 0 0.459 0 0.848 -0.37l0.43 -0.492c0.554 -0.622 0.883 -1.067 1.019 -1.895 -0.459 0 -0.459 0 -0.848 0.37M114.166 91.425c0.574 -0.237 0.922 -0.462 1.352 -0.916l0.414 -0.534c0.587 -0.741 0.866 -1.285 0.991 -2.225 -1.473 0 -2.607 2.402 -2.757 3.675m-1.616 -2.988 -0.006 0.892c-0.007 0.766 -0.101 1.406 0.244 2.096h0.459c0.23 -0.459 0.23 -0.459 0.268 -0.974l0.004 -0.605c0.014 -0.839 -0.075 -1.37 -0.502 -2.096h-0.459zM107.504 83.385h1.838c-0.751 0.13 -1.109 0.345 -1.608 0.919 0.904 -0.075 1.608 -0.109 2.412 -0.531C110.491 83.385 110.491 83.385 110.491 82.466c-1.291 -0.099 -2.162 -0.227 -2.986 0.919m-0.689 -5.513 0.459 0.23 0.336 -0.512 0.44 -0.679c0.427 -0.656 0.806 -1.273 1.115 -1.993L109.342 74.426h0.459c-0.647 1.734 -1.604 3.041 -2.746 4.473L106.585 79.48h0.689c0.871 -0.621 1.63 -1.384 2.355 -2.168 1.152 -1.686 1.457 -2.892 1.321 -4.953h-0.689c-1.502 1.613 -2.543 3.516 -3.446 5.513m3.216 16.769c-0.145 1.14 -0.074 2.183 0.459 3.216l0.459 -0.23c0.547 -1.003 0.514 -1.872 0.459 -2.986 -0.23 -0.459 -0.23 -0.459 -0.919 -0.689zm3.853 0.132 -0.551 0.486c-0.79 0.678 -1.128 1.091 -1.235 2.139 0.459 0 0.459 0 0.94 -0.362l0.553 -0.485c0.768 -0.662 1.18 -1.169 1.493 -2.139 -0.689 0 -0.689 0 -1.201 0.362M96.019 112.099q0.235 0.708 0.476 1.415l0.184 0.538 0.178 0.538 0.179 0.518c0.235 0.696 0.501 1.095 1.05 1.586 0.014 -0.704 0 -1.383 -0.076 -2.083l-0.11 -0.702c-0.109 -0.734 -0.21 -1.247 -0.596 -1.882 -0.473 -0.498 -0.844 -0.543 -1.515 -0.616zm3.156 3.924 -0.002 0.546 -0.002 0.603 0.005 0.628c-0.011 1.331 -0.004 2.467 0.517 3.718h0.459c0.175 -2.229 0.261 -4.425 0.23 -6.662h-0.689c-0.459 0.689 -0.459 0.689 -0.519 1.167m-8.641 -24.755c-0.669 0.703 -0.923 1.23 -0.948 2.225l0.462 0.016 0.615 0.013c1.198 0.032 1.967 -0.24 2.983 -0.869l0.606 -0.424c0.614 -0.424 0.614 -0.424 1.077 -0.804v-0.459c-0.78 0.14 -1.439 0.466 -2.143 0.821l-0.442 0.227 -0.879 0.446L91.195 92.803c0.384 -0.679 0.384 -0.679 0.845 -0.929l0.455 -0.214 0.495 -0.238c0.869 -0.407 2.133 -0.732 2.57 -1.606 -2.032 -0.099 -3.468 0.025 -5.025 1.45M89.587 79.939c-0.074 0.686 -0.051 1.057 0.287 1.665 0.443 0.443 0.708 0.547 1.321 0.632v-0.689c0.476 0.347 0.931 0.699 1.37 1.092 0.798 0.732 1.468 1.364 2.535 1.664 0 -1.045 0 -1.045 -1.45 -2.771 -0.931 -1.032 -1.663 -1.777 -3.101 -1.895C89.817 79.709 89.817 79.709 89.587 79.939m9.878 -0.23h0.459l-0.23 -1.608h-0.459zm1.838 -0.919 0.33 -0.244c0.447 -0.555 0.447 -0.555 0.589 -2.053h-0.459c-0.517 0.775 -0.517 0.775 -0.459 2.297m35.835 27.336 0.028 0.475 0.073 0.574q0.063 0.51 0.129 1.019c1.245 0.052 2.245 -0.122 3.446 -0.459l0.158 -0.531c0.072 -0.617 0.072 -0.617 -0.173 -0.997C140.353 105.896 140.353 105.896 139.64 105.821l-0.809 0.018c-0.575 0.008 -1.265 -0.142 -1.694 0.287m3.81 -40.045c-0.54 0.744 -0.661 0.996 -0.531 1.881 0.459 0 1.545 0.31 1.934 -0.051 0.146 -0.165 1.436 -1.69 1.578 -1.851 0.636 -0.702 1.147 -1.661 1.268 -2.604 -0.71 0 -3.192 1.52 -4.248 2.626M100.383 54.441c-0.621 0.573 -1.09 1.024 -1.45 1.794L98.775 56.738h-0.689v-0.459l-0.919 -0.23c-0.28 0.56 -0.28 0.56 -0.413 1.96L96.708 58.576c-0.176 1.76 -0.176 1.76 0.919 5.743h0.919l0.23 -0.919h0.459l0.459 -2.067 1.149 0.23v1.378c-0.919 0 -0.919 0 -1.321 0.373 -0.357 0.678 -0.339 1.168 -0.287 1.924 0.58 0 0.58 0 1.838 -1.149v-0.459c0.488 0.072 0.488 0.072 1.149 0 0.711 -0.502 1.247 -0.928 1.694 -1.68L104.059 61.562h0.459c0.488 -0.503 0.488 -0.503 0.919 -1.149 0.115 -0.589 0.115 -0.589 0 -1.149a20.674 20.674 0 0 1 -0.919 -0.919c-0.096 -0.833 -0.096 -0.833 0 -1.608l0.23 -0.23a20.444 20.444 0 0 0 -0.23 -1.149c-0.995 -0.066 -1.604 -0.009 -2.34 -0.704C101.762 54.212 101.762 54.212 101.144 54.14 100.613 54.212 100.613 54.212 100.383 54.441m-0.459 11.715h1.838v1.378c-0.436 -0.066 -0.436 -0.066 -0.919 -0.23 -0.301 -0.373 -0.301 -0.373 -0.689 -0.689 -0.847 0.072 -0.847 0.072 -1.608 0.23 -0.03 2.182 -0.143 4.236 0.919 6.202 0.503 0.215 0.503 0.215 0.919 0.23 0.398 -0.593 0.398 -0.593 0.919 -1.149h0.919l0.23 0.459c0.431 0.187 0.431 0.187 0.919 0.23l0.33 -0.287L104.059 72.129c0.913 -0.529 1.651 -0.988 2.297 -1.838 0.218 -1.015 0.115 -1.817 -0.316 -2.757 -0.973 -1.112 -1.997 -2.528 -3.485 -2.905 -1.314 -0.023 -2.084 0.264 -2.631 1.526m-8.754 1.693c-0.589 0.508 -0.767 0.994 -0.894 1.752l0.919 0.23 -0.058 0.444 -0.071 0.575A15.62 15.62 0 0 0 90.965 71.899c0.258 0.258 0.258 0.258 1.163 0.359L93.033 72.359l0.689 1.838q0.607 0.048 1.214 0.093l0.495 0.037c0.58 0.046 1.155 0.079 1.737 0.1l0.23 -0.23c0.469 -0.939 0.52 -1.714 0.459 -2.757l-0.23 -0.23c-0.038 -0.804 -0.038 -0.804 0 -1.608 0.23 -0.23 0.23 -0.23 0.252 -0.805l-0.008 -0.702A205.591 205.591 0 0 0 97.856 66.846c-1.015 0 -1.015 0 -2.039 0.919l-0.572 0.517c-0.72 0.479 -1.135 0.481 -1.983 0.402l0.459 -1.149c0.96 -0.059 1.806 -0.083 2.656 -0.56C96.708 66.616 96.708 66.616 96.708 66.157c-2.227 -0.121 -3.698 0.444 -5.538 1.693m2.3 -9.718 0.008 0.574 0.006 0.575L93.492 59.725c-0.612 -0.336 -0.935 -0.46 -1.651 -0.502C91.195 59.265 91.195 59.265 90.965 59.495c-0.171 0.648 -0.171 0.648 -0.459 1.378l-0.589 0.56c-0.847 0.925 -0.847 0.925 -0.79 4.264 0.23 0.23 0.23 0.23 0.831 0.26l0.748 -0.002A28.943 28.943 0 0 0 92.114 65.927c0.687 -0.229 1.34 -0.326 2.056 -0.413l0.514 -0.06 1.015 -0.123L96.478 65.238v-0.459l-2.297 -0.689v-1.838h1.378c0.057 0.66 0.057 0.66 0.23 1.378 0.47 0.275 0.47 0.275 0.919 0.459 0.019 -1.571 -0.147 -2.971 -0.765 -4.417l-0.211 -0.464c-0.253 -0.576 -0.503 -1.022 -0.861 -1.551 -0.614 -0.226 -0.614 -0.226 -1.149 -0.23 -0.23 0.23 -0.23 0.23 -0.252 0.704m52.829 32.993L145.866 91.396c-1.081 0.664 -3.414 2.326 -3.546 2.426 -0.445 0.337 -3.889 4.456 -4.034 5.183h0.459c0.212 -0.251 3.327 -3.87 5.054 -5.283 -0.465 0.748 -0.465 0.748 -1.067 1.398L141.272 96.708c0.156 0.078 1.232 -0.482 1.536 -0.761 0.752 -0.692 1.475 -1.268 2.369 -1.766 -0.857 0.903 -4.987 4.508 -5.283 4.824l0.689 0.23c1.022 -0.513 3.107 -1.946 3.317 -2.096 0.518 -0.36 4.576 -4.532 4.723 -6.633 -0.942 -0.111 -1.518 0.138 -2.324 0.619M104.518 101.762c0.668 1.074 1.229 1.992 2.527 2.297 0 -0.954 -0.338 -1.609 -0.781 -2.444l-0.353 -0.599c-0.351 -0.607 -0.351 -0.607 -0.703 -1.091l-0.689 -0.23v-0.919c1.295 1.083 1.295 1.083 2.112 2.622l0.242 0.436 0.492 0.873L107.734 103.37l0.459 -0.459c0.049 -0.89 0.036 -1.677 -0.23 -2.527 -0.984 -2.063 -2.221 -3.332 -4.364 -4.135 0.067 1.916 0.021 3.78 0.919 5.513" style="fill: rgb(195, 160, 86);"/>
  <path d="M152.298 72.359h54.441v14.242h-6.202c-0.201 -3.029 -0.201 -3.029 -0.261 -3.965 -0.127 -1.837 -0.353 -3.638 -0.658 -5.454 -3.246 -0.382 -22.423 -0.66 -25.957 -0.689v33.078c3.227 -0.033 20.336 -0.29 21.363 -0.459v-1.149h0.459l0.459 -5.283h4.364v18.147h-4.594l-0.072 -1.565c-0.089 -1.501 -0.234 -3.017 -0.847 -4.408 -1.279 -0.853 -18.959 -0.896 -21.133 -0.919 0.019 3.726 0.157 26.495 0.158 26.764 0.024 2.333 0.098 5.234 1.45 7.233 1.586 1.209 3.285 1.319 5.212 1.321q0.748 0.011 1.496 0.025l0.699 0.011c2.059 0.069 2.059 0.069 2.471 0.481v3.446H152.068v-3.675l1.059 -0.076c3.992 -0.179 3.992 -0.179 7.699 -1.489 1.432 -1.671 1.154 -4.455 1.151 -6.528 0.001 -0.379 0.025 -53.517 0.027 -54.26 0.365 -4.883 0.365 -4.883 -1.076 -9.266 -1.803 -1.56 -3.798 -1.753 -6.088 -2.032l-0.742 -0.093q-0.9 -0.113 -1.8 -0.223z" fill="#C3A056"/>
</svg>
